<?xml version="1.0" encoding="UTF-8" standalone="no"?>
<svg width="118px" height="38px" viewBox="0 0 118 38" version="1.1" xmlns="http://www.w3.org/2000/svg" xmlns:xlink="http://www.w3.org/1999/xlink">
    <!-- Generator: Sketch 49.2 (51160) - http://www.bohemiancoding.com/sketch -->
    <title>新logo</title>
    <desc>Created with Sketch.</desc>
    <defs>
        <polygon id="path-1" points="2.1455531e-05 0.070295082 45.7432364 0.070295082 45.7432364 37.2458754 2.1455531e-05 37.2458754"></polygon>
    </defs>
    <g id="Page-1" stroke="none" stroke-width="1" fill="none" fill-rule="evenodd">
        <g id="首页2-copy" transform="translate(-65.000000, -50.000000)">
            <g id="新logo" transform="translate(65.000000, 50.000000)">
                <g id="Page-1">
                    <g id="Group-3" transform="translate(0.000000, 0.060852)">
                        <mask id="mask-2" fill="white">
                            <use xlink:href="#path-1"></use>
                        </mask>
                        <g id="Clip-2"></g>
                        <path d="M23.0129304,29.0680393 C30.8376909,28.8226623 37.04211,22.5801705 37.1336843,14.8296131 L37.1336843,8.16561311 L45.7432364,8.16561311 L45.7432364,15.5340066 C45.5751322,27.5187934 35.1826288,36.9742689 23.0129304,37.2458754 L23.0129304,37.2439082 C10.6432075,37.1671869 0.170380488,27.6443016 0.000313968958,15.5321705 L0.000313968958,2.28653115 C-0.0183933481,0.932039344 0.861766297,0.0533508197 2.19050909,0.072104918 L37.1298905,0.0702688525 L37.1298905,8.16180984 L9.73125854,8.16928525 C9.02862217,8.16928525 8.6062031,8.5984 8.6062031,9.2971541 L8.6062031,14.6946623 C8.69960887,22.5483016 15.0106466,28.9875148 23.0109681,29.0680393 L23.0129304,29.0680393 Z" id="Fill-1" fill="#FF7E41" mask="url(#mask-2)"></path>
                    </g>
                    <path d="M55.3387818,32.2070689 L57.8453007,33.1185443 C59.4755845,29.4570361 60.8265667,26.0092984 62.0455512,22.5390033 L59.5377242,21.643659 C58.3048727,24.8708066 56.5013827,29.5757246 55.3387818,32.2070689" id="Fill-4" fill="#595959"></path>
                    <path d="M61.7075898,9.52598033 C60.5020798,8.46276721 58.6200976,7.02735738 57.2948869,6.03470164 L55.6766386,8.15798033 C56.7763149,9.0503082 58.9289645,10.6512262 60.0553282,11.6239475 L61.7075898,9.52598033 Z" id="Fill-6" fill="#595959"></path>
                    <path d="M61.7075898,16.8497574 C60.1682262,15.5293639 58.3608115,14.0900197 56.6270488,12.8299541 L55.0140333,14.9571672 C56.7880887,16.2542164 58.5642373,17.6750689 60.0553282,18.9475934 L61.7075898,16.8497574 Z" id="Fill-8" fill="#595959"></path>
                    <path d="M77.4100016,9.51138361 L76.4077865,12.9020721 L70.7369838,12.9020721 L69.7347687,9.51138361 L77.4100016,9.51138361 Z M76.5314118,24.9150557 L76.5314118,26.8212852 C76.5314118,27.2313836 76.199782,27.5638426 75.7908375,27.5638426 L70.6133585,27.5638426 L70.6133585,24.9150557 L76.5314118,24.9150557 Z M75.0505248,3.8688918 L72.0942455,3.8688918 L72.0942455,7.13538361 L62.4700503,7.13538361 L62.4700503,9.51138361 L66.8240149,9.51610492 L68.0139572,12.9067934 L63.2885936,12.9020721 L63.2885936,33.5891541 L65.9549749,33.5891541 L65.9549749,15.2780721 L72.2393253,15.2780721 L72.2393253,17.7217443 L67.4441035,17.7217443 L67.4441035,20.0977443 L72.2393253,20.0977443 L72.2393253,22.5390557 L68.2432854,22.5390557 L68.2432854,29.9398426 L77.049853,29.9398426 C78.0724761,29.9398426 78.9014849,29.1087607 78.9014849,28.0835803 L78.9014849,22.5390557 L74.905445,22.5390557 L74.905445,20.0977443 L79.3955936,20.0977443 L79.3955936,17.7217443 L74.905445,17.7217443 L74.905445,15.2780721 L81.1899262,15.2780721 L81.1899262,29.7281705 C81.1899262,30.5483672 80.5266667,31.2132852 79.708516,31.2132852 L76.5503807,31.2132852 L77.2456911,33.5891541 L80.1530437,33.5891541 C82.198159,33.5891541 83.8560459,31.9269902 83.8560459,29.8767607 L83.8560459,12.9020721 L79.1306823,12.9020721 L80.3207554,9.51138361 L84.67472,9.51138361 L84.67472,7.13538361 L75.0505248,7.13538361 L75.0505248,3.8688918 Z" id="Fill-10" fill="#595959"></path>
                    <path d="M88.6287404,32.2070689 L91.1351284,33.1185443 C92.765543,29.4570361 94.1165253,26.0092984 95.3353789,22.5390033 L92.8276827,21.643659 C91.5948313,24.8708066 89.7913412,29.5757246 88.6287404,32.2070689" id="Fill-12" fill="#595959"></path>
                    <path d="M94.9974175,9.52598033 C93.7919075,8.46276721 91.9099253,7.02735738 90.5847146,6.03470164 L88.9664663,8.15798033 C90.0662734,9.0503082 92.2189231,10.6512262 93.3451559,11.6239475 L94.9974175,9.52598033 Z" id="Fill-14" fill="#595959"></path>
                    <path d="M94.9974175,16.8497574 C93.4581847,15.5293639 91.6507701,14.0900197 89.9170073,12.8299541 L88.3039918,14.9571672 C90.0780472,16.2542164 91.854065,17.6750689 93.3451559,18.9475934 L94.9974175,16.8497574 Z" id="Fill-16" fill="#595959"></path>
                    <path d="M110.69996,9.51138361 L109.697614,12.9020721 L104.026942,12.9020721 L103.024727,9.51138361 L110.69996,9.51138361 Z M109.82137,24.9150557 L109.82137,26.8212852 C109.82137,27.2313836 109.489741,27.5638426 109.080665,27.5638426 L103.903186,27.5638426 L103.903186,24.9150557 L109.82137,24.9150557 Z M108.340353,3.8688918 L105.384204,3.8688918 L105.384204,7.13538361 L95.7600089,7.13538361 L95.7600089,9.51138361 L100.113973,9.51610492 L101.303916,12.9067934 L96.5785521,12.9020721 L96.5785521,33.5891541 L99.2449335,33.5891541 L99.2449335,15.2780721 L105.529153,15.2780721 L105.529153,17.7217443 L100.733931,17.7217443 L100.733931,20.0977443 L105.529153,20.0977443 L105.529153,22.5390557 L101.533244,22.5390557 L101.533244,29.9398426 L110.339812,29.9398426 C111.362304,29.9398426 112.191313,29.1087607 112.191313,28.0835803 L112.191313,22.5390557 L108.195404,22.5390557 L108.195404,20.0977443 L112.685552,20.0977443 L112.685552,17.7217443 L108.195404,17.7217443 L108.195404,15.2780721 L114.479754,15.2780721 L114.479754,29.7281705 C114.479754,30.5483672 113.816494,31.2132852 112.998475,31.2132852 L109.840339,31.2132852 L110.535519,33.5891541 L113.442871,33.5891541 C115.488118,33.5891541 117.146004,31.9269902 117.146004,29.8767607 L117.146004,12.9020721 L112.420641,12.9020721 L113.610714,9.51138361 L117.964548,9.51138361 L117.964548,7.13538361 L108.340353,7.13538361 L108.340353,3.8688918 Z" id="Fill-18" fill="#595959"></path>
                </g>
            </g>
        </g>
    </g>
</svg>